<svg width="100" height="41" viewBox="0 0 100 41" fill="none" xmlns="http://www.w3.org/2000/svg">
<path d="M50.3484 0C48.0203 0 45.7329 1.09433 44.3421 2.81474C43.0736 1.07854 41.2243 0 38.7433 0C36.7208 0.00526119 35.2689 0.936492 34.4894 1.68884V0.452462H30.9896V18.1406H34.4894V7.80235C34.4894 5.49268 36.3082 3.61444 38.5446 3.61444C40.7811 3.61444 42.5998 5.49268 42.5998 7.80235V18.1459H46.0997V7.80235C46.0997 5.49268 47.9184 3.61444 50.1548 3.61444C52.3913 3.61444 54.21 5.49268 54.21 7.80235V18.1459H57.7099V7.80235C57.6997 3.04623 54.7194 0 50.3484 0Z" fill="#FC2C38"/>
<path d="M75.754 24.3074C74.3836 22.8763 72.2898 22.0714 70.2113 22.0714C65.2442 22.0714 61.2094 26.2382 61.2094 31.3679C61.2094 36.4976 65.2442 40.6644 70.2113 40.6644C72.2898 40.6644 74.5008 39.7437 75.754 38.2758V40.212H79.2539V0.453125H75.754V24.3074ZM70.3234 36.9711C67.2565 36.9711 64.9334 34.5351 64.9334 31.3679C64.9334 28.2059 67.2616 25.7858 70.3234 25.7858C73.3851 25.7858 75.7999 28.0481 75.7999 31.3679C75.7999 34.6877 73.3902 36.9711 70.3234 36.9711Z" fill="#FC2C38"/>
<path d="M54.1844 23.996C52.6459 22.6965 50.6897 21.9126 48.5551 21.9126V21.9336H8.93055V21.9126C3.99913 21.9126 0 26.0742 0 31.2091C0 36.3441 3.99913 40.5057 8.93055 40.5057H48.7742V40.4951C50.8221 40.4425 52.702 39.6797 54.1844 38.4222V40.0637H57.6843V22.3756H54.1844V23.996ZM48.5551 36.8228H8.93055C5.97578 36.8228 3.56611 34.3027 3.56611 31.2091C3.56611 28.1155 5.97578 25.5954 8.93055 25.5954H48.55C51.5099 25.5954 53.9144 28.1155 53.9144 31.2091C53.9144 34.3027 51.515 36.8228 48.5551 36.8228Z" fill="#FC2C38"/>
<path d="M91.323 22.0601C86.3458 22.0601 82.3059 26.2269 82.3059 31.3724C82.3059 36.5178 86.3407 40.6847 91.323 40.6847C94.1606 40.6847 96.6875 39.3273 98.3381 37.2123L95.4292 35.2341C94.4103 36.3863 92.9482 37.1176 91.318 37.1176C88.6587 37.1176 86.4375 35.1867 85.8873 32.6087H99.9275C100.615 26.3742 96.3054 22.0601 91.323 22.0601ZM86.1471 29.2889C86.9571 27.1476 88.9643 25.6271 91.3281 25.6271C93.6869 25.6271 95.745 27.1792 96.2341 29.2889H86.1471Z" fill="#FC2C38"/>
</svg>
